<?xml version="1.0" encoding="UTF-8" standalone="no"?>
<!DOCTYPE svg PUBLIC "-//W3C//DTD SVG 1.1//EN" "http://www.w3.org/Graphics/SVG/1.1/DTD/svg11.dtd">
<svg width="100%" height="100%" viewBox="0 0 20 20" version="1.1" xmlns="http://www.w3.org/2000/svg" xmlns:xlink="http://www.w3.org/1999/xlink" xml:space="preserve" xmlns:serif="http://www.serif.com/" style="fill-rule:evenodd;clip-rule:evenodd;stroke-linejoin:round;stroke-miterlimit:2;">
    <g transform="matrix(0.985075,0,0,0.99561,-148.3,-0.284051)">
        <path d="M153.859,17.037L156.846,17.037L156.846,8.063L153.859,8.063L153.859,17.037ZM157.04,5.295C157.027,4.417 156.394,3.744 155.372,3.744C154.35,3.744 153.678,4.416 153.678,5.295C153.678,6.149 154.324,6.847 155.333,6.847L155.346,6.847C156.394,6.847 157.04,6.149 157.04,5.295ZM164.604,17.037L167.592,17.037L167.592,11.89C167.592,9.136 166.118,7.856 164.152,7.856C162.549,7.856 161.838,8.748 161.449,9.369L161.475,9.369L161.475,8.063L158.488,8.063C158.488,8.063 158.527,8.904 158.488,17.037L161.475,17.037L161.475,12.02C161.475,11.761 161.488,11.49 161.565,11.296C161.785,10.766 162.276,10.209 163.104,10.209C164.177,10.209 164.604,11.024 164.604,12.239L164.604,17.037ZM170.656,4.132L170.656,16.545C170.656,18.601 168.988,20.269 166.932,20.269L154.519,20.269C152.463,20.269 150.795,18.601 150.795,16.545L150.795,4.132C150.795,2.076 152.463,0.408 154.519,0.408L166.932,0.408C168.988,0.408 170.656,2.076 170.656,4.132Z" style="fill-rule:nonzero;"/>
    </g>
</svg>
