<?xml version="1.0" encoding="UTF-8" standalone="no"?>
<!DOCTYPE svg PUBLIC "-//W3C//DTD SVG 1.1//EN" "http://www.w3.org/Graphics/SVG/1.1/DTD/svg11.dtd">
<svg width="100%" height="100%" viewBox="0 0 20 20" version="1.1" xmlns="http://www.w3.org/2000/svg" xmlns:xlink="http://www.w3.org/1999/xlink" xml:space="preserve" xmlns:serif="http://www.serif.com/" style="fill-rule:evenodd;clip-rule:evenodd;stroke-linejoin:round;stroke-miterlimit:2;">
    <g transform="matrix(0.988532,0,0,0.996472,-202.001,-0.366311)">
        <path d="M224.252,10.339C224.252,15.795 219.825,20.222 214.368,20.222C213.39,20.222 212.464,20.081 211.563,19.81C211.936,19.218 212.361,18.459 212.567,17.7C212.567,17.7 212.683,17.263 213.262,14.985C213.597,15.641 214.601,16.22 215.669,16.22C218.847,16.22 221.009,13.324 221.009,9.438C221.009,6.517 218.525,3.776 214.742,3.776C210.057,3.776 207.69,7.148 207.69,9.953C207.69,11.652 208.333,13.17 209.71,13.737C209.929,13.827 210.135,13.737 210.199,13.479C210.251,13.312 210.353,12.875 210.405,12.694C210.469,12.436 210.444,12.36 210.263,12.141C209.865,11.665 209.607,11.059 209.607,10.198C209.607,7.701 211.473,5.462 214.471,5.462C217.123,5.462 218.589,7.084 218.589,9.258C218.589,12.102 217.328,14.509 215.449,14.509C214.419,14.509 213.647,13.659 213.891,12.604C214.187,11.356 214.766,10.005 214.766,9.104C214.766,8.294 214.329,7.611 213.428,7.611C212.373,7.611 211.524,8.704 211.524,10.171C211.524,10.171 211.524,11.111 211.846,11.741C210.764,16.323 210.571,17.12 210.571,17.12C210.391,17.867 210.379,18.703 210.404,19.399C206.917,17.867 204.485,14.392 204.485,10.339C204.485,4.882 208.912,0.455 214.368,0.455C219.825,0.455 224.252,4.882 224.252,10.339Z" style="fill-rule:nonzero;"/>
    </g>
</svg>
